<svg width="50" height="50" viewBox="0 0 50 50" fill="none" xmlns="http://www.w3.org/2000/svg">
<path d="M31.2499 41.5063L18.7499 37.1313L10.5041 40.3188C9.97075 40.5174 9.47561 40.4597 9.01867 40.1459C8.56172 39.832 8.33325 39.3903 8.33325 38.8209V13.3417C8.33325 12.9695 8.42353 12.6299 8.60409 12.3229C8.78464 12.016 9.04714 11.8028 9.39158 11.6834L18.7499 8.49377L31.2499 12.8688L39.4958 9.68127C40.0291 9.48266 40.5242 9.52016 40.9812 9.79377C41.4381 10.0674 41.6666 10.4757 41.6666 11.0188V36.8188C41.6666 37.2174 41.5562 37.5632 41.3353 37.8563C41.1159 38.1507 40.8201 38.3577 40.4478 38.4771L31.2499 41.5063ZM30.2083 38.9646V14.5896L19.7916 10.9542V35.3292L30.2083 38.9646ZM32.2916 38.9646L39.5833 36.5625V11.875L32.2916 14.5917V38.9646ZM10.4166 38.125L17.7083 35.3292V10.9542L10.4166 13.4375V38.125Z" fill="white"/>
</svg>
