<svg width="50" height="50" viewBox="0 0 50 50" fill="none" xmlns="http://www.w3.org/2000/svg">
<path d="M43.75 20.8333C43.75 35.4167 25 47.9167 25 47.9167C25 47.9167 6.25 35.4167 6.25 20.8333C6.25 15.8605 8.22544 11.0914 11.7417 7.57509C15.2581 4.05878 20.0272 2.08334 25 2.08334C29.9728 2.08334 34.7419 4.05878 38.2582 7.57509C41.7746 11.0914 43.75 15.8605 43.75 20.8333Z" stroke="white" stroke-width="2" stroke-linecap="round" stroke-linejoin="round"/>
<path d="M25 27.0833C28.4518 27.0833 31.25 24.2851 31.25 20.8333C31.25 17.3816 28.4518 14.5833 25 14.5833C21.5482 14.5833 18.75 17.3816 18.75 20.8333C18.75 24.2851 21.5482 27.0833 25 27.0833Z" stroke="white" stroke-width="2" stroke-linecap="round" stroke-linejoin="round"/>
</svg>
