<svg width="50" height="50" viewBox="0 0 50 50" fill="none" xmlns="http://www.w3.org/2000/svg">
<path d="M19.9999 35C19.9999 35.663 19.7365 36.2989 19.2677 36.7678C18.7988 37.2366 18.1629 37.5 17.4999 37.5C16.8369 37.5 16.201 37.2366 15.7321 36.7678C15.2633 36.2989 14.9999 35.663 14.9999 35C14.9999 34.337 15.2633 33.7011 15.7321 33.2322C16.201 32.7634 16.8369 32.5 17.4999 32.5C18.1629 32.5 18.7988 32.7634 19.2677 33.2322C19.7365 33.7011 19.9999 34.337 19.9999 35ZM32.4999 37.5C33.1629 37.5 33.7988 37.2366 34.2677 36.7678C34.7365 36.2989 34.9999 35.663 34.9999 35C34.9999 34.337 34.7365 33.7011 34.2677 33.2322C33.7988 32.7634 33.1629 32.5 32.4999 32.5C31.8369 32.5 31.201 32.7634 30.7321 33.2322C30.2633 33.7011 29.9999 34.337 29.9999 35C29.9999 35.663 30.2633 36.2989 30.7321 36.7678C31.201 37.2366 31.8369 37.5 32.4999 37.5ZM7.4999 15C7.4999 13.0109 8.29008 11.1032 9.6966 9.6967C11.1031 8.29018 13.0108 7.5 14.9999 7.5H34.9999C36.989 7.5 38.8967 8.29018 40.3032 9.6967C41.7097 11.1032 42.4999 13.0109 42.4999 15V35C42.4999 36.851 41.8154 38.6367 40.578 40.0134C39.3407 41.3902 37.638 42.2607 35.7974 42.4575L41.7574 45.1075C41.9074 45.1741 42.0429 45.2697 42.156 45.3887C42.2691 45.5077 42.3577 45.6478 42.4166 45.801C42.4756 45.9542 42.5038 46.1175 42.4996 46.2817C42.4955 46.4458 42.459 46.6075 42.3924 46.7575C42.3258 46.9075 42.2302 47.043 42.1112 47.1561C41.9922 47.2692 41.8521 47.3578 41.6989 47.4167C41.5457 47.4757 41.3824 47.5039 41.2183 47.4997C41.0541 47.4956 40.8924 47.4591 40.7424 47.3925L29.7349 42.5H20.2649L9.2574 47.3925C9.10737 47.4591 8.94567 47.4956 8.78155 47.4997C8.61744 47.5039 8.4541 47.4757 8.30089 47.4167C8.14767 47.3578 8.00757 47.2692 7.88858 47.1561C7.76959 47.043 7.67405 46.9075 7.6074 46.7575C7.54076 46.6075 7.50431 46.4458 7.50016 46.2817C7.496 46.1175 7.52421 45.9542 7.58317 45.801C7.64214 45.6478 7.73071 45.5077 7.84382 45.3887C7.95693 45.2697 8.09237 45.1741 8.2424 45.1075L14.2049 42.4575C12.3639 42.2612 10.6605 41.391 9.42269 40.0142C8.18483 38.6374 7.49996 36.8514 7.4999 35V15ZM30.0299 40H34.9999C36.326 40 37.5978 39.4732 38.5354 38.5355C39.4731 37.5979 39.9999 36.3261 39.9999 35V30H9.9999V35C9.9999 36.3261 10.5267 37.5979 11.4644 38.5355C12.402 39.4732 13.6738 40 14.9999 40H30.0299ZM9.9999 15V27.5H39.9999V15C39.9999 13.6739 39.4731 12.4021 38.5354 11.4645C37.5978 10.5268 36.326 10 34.9999 10H14.9999C13.6738 10 12.402 10.5268 11.4644 11.4645C10.5267 12.4021 9.9999 13.6739 9.9999 15Z" fill="white"/>
</svg>
