<svg width="50" height="50" viewBox="0 0 50 50" fill="none" xmlns="http://www.w3.org/2000/svg">
<path d="M16.1876 37.5V40.3854C16.1876 40.741 16.0619 41.0431 15.8105 41.2917C15.5605 41.5417 15.2563 41.6667 14.898 41.6667C14.5411 41.6667 14.239 41.5417 13.9917 41.2917C13.7445 41.0431 13.6209 40.7403 13.6209 40.3833V36.675C12.9431 36.3806 12.2397 35.7549 11.5105 34.7979C10.7813 33.841 10.4167 32.7382 10.4167 31.4896V12.5C10.4167 10.3389 11.5862 8.75694 13.9251 7.75417C16.2667 6.75139 19.9584 6.25 25.0001 6.25C30.2265 6.25 33.964 6.73194 36.2126 7.69583C38.4612 8.65972 39.5848 10.2611 39.5834 12.5V31.4917C39.5834 32.7389 39.2188 33.841 38.4897 34.7979C37.7605 35.7563 37.0563 36.3813 36.3772 36.6729V40.3833C36.3772 40.7403 36.2522 41.0431 36.0022 41.2917C35.7522 41.5417 35.4487 41.6667 35.0918 41.6667C34.7348 41.6667 34.4327 41.5417 34.1855 41.2917C33.9383 41.0417 33.8147 40.7389 33.8147 40.3833V37.5H16.1876ZM25.0251 11.5396H37.3313H12.7167H25.0251ZM33.3334 25H12.5001H37.5001H33.3334ZM12.5001 22.9167H37.5001V13.6229H12.5001V22.9167ZM17.7188 32.5333C18.3661 32.5333 18.9133 32.3063 19.3605 31.8521C19.8091 31.3979 20.0334 30.8472 20.0334 30.2C20.0334 29.5514 19.8063 29.0028 19.3522 28.5542C18.898 28.1083 18.3473 27.8854 17.7001 27.8854C17.0515 27.8854 16.5029 28.1118 16.0542 28.5646C15.607 29.0188 15.3834 29.5694 15.3834 30.2167C15.3834 30.8653 15.6105 31.4139 16.0647 31.8625C16.5188 32.3097 17.0695 32.5333 17.7167 32.5333M32.3001 32.5333C32.9487 32.5333 33.4973 32.3063 33.9459 31.8521C34.3918 31.3979 34.6147 30.8472 34.6147 30.2C34.6147 29.5514 34.3883 29.0028 33.9355 28.5542C33.4813 28.1083 32.9299 27.8854 32.2813 27.8854C31.6341 27.8854 31.0869 28.1118 30.6397 28.5646C30.1911 29.0188 29.9667 29.5694 29.9667 30.2167C29.9667 30.8653 30.1938 31.4139 30.648 31.8625C31.1022 32.3097 31.6529 32.5333 32.3001 32.5333ZM12.7167 11.5396H37.3313C36.9702 10.4674 35.857 9.66528 33.9917 9.13333C32.1265 8.6 29.1376 8.33333 25.0251 8.33333C20.9348 8.33333 17.957 8.60417 16.0917 9.14583C14.2265 9.68611 13.1015 10.484 12.7167 11.5396ZM16.6667 35.4167H33.3334C34.4792 35.4167 35.4605 35.009 36.2772 34.1938C37.0938 33.3785 37.5015 32.3972 37.5001 31.25V25H12.5001V31.25C12.5001 32.3958 12.9084 33.3771 13.7251 34.1938C14.5417 35.0104 15.5223 35.4181 16.6667 35.4167Z" fill="black"/>
</svg>
