<svg width="390" height="432" viewBox="0 0 390 432" fill="none" xmlns="http://www.w3.org/2000/svg">
<rect width="390" height="432" fill="#F7FBFE"/>
<path d="M52.755 99.905H57.375V107.29H52.755V99.905ZM55.065 83.35C57.375 83.35 59.44 83.7233 61.26 84.47C63.1033 85.1933 64.55 86.22 65.6 87.55C66.65 88.88 67.175 90.455 67.175 92.275C67.175 94.0717 66.65 95.6467 65.6 97C64.55 98.3533 63.1033 99.4033 61.26 100.15C59.44 100.873 57.375 101.235 55.065 101.235C52.7783 101.235 50.7133 100.873 48.87 100.15C47.05 99.4033 45.6033 98.3533 44.53 97C43.48 95.6467 42.955 94.0717 42.955 92.275C42.955 90.455 43.48 88.88 44.53 87.55C45.6033 86.22 47.05 85.1933 48.87 84.47C50.7133 83.7233 52.7783 83.35 55.065 83.35ZM55.065 87.025C53.595 87.025 52.2883 87.235 51.145 87.655C50.025 88.075 49.1383 88.67 48.485 89.44C47.855 90.21 47.54 91.155 47.54 92.275C47.54 93.3717 47.855 94.3167 48.485 95.11C49.1383 95.88 50.025 96.475 51.145 96.895C52.2883 97.315 53.595 97.525 55.065 97.525C56.5583 97.525 57.865 97.315 58.985 96.895C60.1283 96.475 61.015 95.88 61.645 95.11C62.275 94.3167 62.59 93.3717 62.59 92.275C62.59 91.155 62.275 90.21 61.645 89.44C61.015 88.67 60.1283 88.075 58.985 87.655C57.865 87.235 56.5583 87.025 55.065 87.025ZM40.435 106.555H69.8V110.335H40.435V106.555ZM78.6655 86.1172L78.1016 103.395H74L73.4189 86.1172H78.6655ZM73.2822 108.744C73.2822 108.015 73.5329 107.411 74.0342 106.933C74.5469 106.443 75.2191 106.198 76.0508 106.198C76.8939 106.198 77.5661 106.443 78.0674 106.933C78.5687 107.411 78.8193 108.015 78.8193 108.744C78.8193 109.451 78.5687 110.049 78.0674 110.539C77.5661 111.028 76.8939 111.273 76.0508 111.273C75.2191 111.273 74.5469 111.028 74.0342 110.539C73.5329 110.049 73.2822 109.451 73.2822 108.744Z" fill="#6488FF"/>
<path d="M101.002 98.3877V102.25H91.3462V98.3877H101.002ZM135.565 81.635H140.22V114.15H135.565V81.635ZM122.755 83.91C124.412 83.91 125.882 84.3883 127.165 85.345C128.449 86.2783 129.452 87.62 130.175 89.37C130.922 91.0967 131.295 93.1383 131.295 95.495C131.295 97.875 130.922 99.94 130.175 101.69C129.452 103.417 128.449 104.758 127.165 105.715C125.882 106.648 124.412 107.115 122.755 107.115C121.122 107.115 119.664 106.648 118.38 105.715C117.097 104.758 116.082 103.417 115.335 101.69C114.612 99.94 114.25 97.875 114.25 95.495C114.25 93.1383 114.612 91.0967 115.335 89.37C116.082 87.62 117.097 86.2783 118.38 85.345C119.664 84.3883 121.122 83.91 122.755 83.91ZM122.755 88.145C121.962 88.145 121.262 88.425 120.655 88.985C120.049 89.545 119.57 90.3733 119.22 91.47C118.894 92.5433 118.73 93.885 118.73 95.495C118.73 97.0817 118.894 98.435 119.22 99.555C119.57 100.652 120.049 101.48 120.655 102.04C121.262 102.6 121.962 102.88 122.755 102.88C123.572 102.88 124.284 102.6 124.89 102.04C125.497 101.48 125.964 100.652 126.29 99.555C126.64 98.435 126.815 97.0817 126.815 95.495C126.815 93.885 126.64 92.5433 126.29 91.47C125.964 90.3733 125.497 89.545 124.89 88.985C124.284 88.425 123.572 88.145 122.755 88.145ZM167.973 81.67H172.663V103.195H167.973V81.67ZM162.408 90.28H168.673V94.025H162.408V90.28ZM157.298 84.12H162.233C162.233 87.0833 161.708 89.7083 160.658 91.995C159.608 94.2583 158.021 96.2067 155.898 97.84C153.798 99.4733 151.114 100.803 147.848 101.83L145.923 98.225C148.629 97.4083 150.811 96.4167 152.468 95.25C154.148 94.06 155.373 92.7067 156.143 91.19C156.913 89.65 157.298 87.9817 157.298 86.185V84.12ZM147.568 84.12H160.728V87.83H147.568V84.12ZM159.398 100.815H163.353V101.865C163.353 103.358 163.084 104.77 162.548 106.1C162.034 107.43 161.253 108.632 160.203 109.705C159.153 110.755 157.858 111.653 156.318 112.4C154.801 113.147 153.051 113.695 151.068 114.045L149.283 110.37C151.009 110.09 152.503 109.67 153.763 109.11C155.023 108.55 156.073 107.885 156.913 107.115C157.753 106.322 158.371 105.482 158.768 104.595C159.188 103.708 159.398 102.798 159.398 101.865V100.815ZM160.063 100.815H164.018V101.865C164.018 102.798 164.228 103.708 164.648 104.595C165.068 105.458 165.686 106.287 166.503 107.08C167.343 107.85 168.393 108.515 169.653 109.075C170.936 109.635 172.429 110.055 174.133 110.335L172.313 113.975C170.329 113.648 168.568 113.112 167.028 112.365C165.511 111.642 164.239 110.743 163.213 109.67C162.186 108.597 161.404 107.407 160.868 106.1C160.331 104.77 160.063 103.358 160.063 101.865V100.815ZM177.7 98.225H207.03V101.9H177.7V98.225ZM181.27 109.81H203.74V113.555H181.27V109.81ZM181.27 104.07H185.925V111H181.27V104.07ZM192.365 82.65C194.721 82.65 196.775 82.9183 198.525 83.455C200.298 83.9917 201.675 84.7617 202.655 85.765C203.635 86.7683 204.125 87.9467 204.125 89.3C204.125 90.6767 203.635 91.8667 202.655 92.87C201.675 93.8733 200.298 94.6433 198.525 95.18C196.775 95.7167 194.721 95.985 192.365 95.985C190.031 95.985 187.978 95.7167 186.205 95.18C184.455 94.6433 183.09 93.8733 182.11 92.87C181.13 91.8667 180.64 90.6767 180.64 89.3C180.64 87.9467 181.13 86.7683 182.11 85.765C183.09 84.7617 184.455 83.9917 186.205 83.455C187.978 82.9183 190.031 82.65 192.365 82.65ZM192.365 86.325C190.941 86.325 189.705 86.4417 188.655 86.675C187.605 86.9083 186.811 87.2467 186.275 87.69C185.738 88.11 185.47 88.6467 185.47 89.3C185.47 89.9533 185.738 90.5017 186.275 90.945C186.811 91.3883 187.605 91.7267 188.655 91.96C189.705 92.1933 190.941 92.31 192.365 92.31C193.835 92.31 195.083 92.1933 196.11 91.96C197.136 91.7267 197.918 91.3883 198.455 90.945C199.015 90.5017 199.295 89.9533 199.295 89.3C199.295 88.6467 199.015 88.11 198.455 87.69C197.918 87.2467 197.136 86.9083 196.11 86.675C195.083 86.4417 193.835 86.325 192.365 86.325ZM61.295 121.67H65.985V140.395H61.295V121.67ZM64.655 129.335H70.22V133.15H64.655V129.335ZM55.345 140.955C57.585 140.955 59.5217 141.223 61.155 141.76C62.7883 142.297 64.0483 143.055 64.935 144.035C65.845 144.992 66.3 146.158 66.3 147.535C66.3 148.912 65.845 150.09 64.935 151.07C64.0483 152.073 62.7883 152.832 61.155 153.345C59.5217 153.882 57.585 154.15 55.345 154.15C53.1283 154.15 51.1917 153.882 49.535 153.345C47.8783 152.832 46.595 152.073 45.685 151.07C44.7983 150.09 44.355 148.912 44.355 147.535C44.355 146.158 44.7983 144.992 45.685 144.035C46.595 143.055 47.8783 142.297 49.535 141.76C51.1917 141.223 53.1283 140.955 55.345 140.955ZM55.345 144.665C53.9683 144.665 52.8133 144.77 51.88 144.98C50.9467 145.19 50.2233 145.505 49.71 145.925C49.22 146.345 48.975 146.882 48.975 147.535C48.975 148.165 49.22 148.702 49.71 149.145C50.2233 149.565 50.9467 149.88 51.88 150.09C52.8133 150.3 53.9683 150.405 55.345 150.405C56.7217 150.405 57.8767 150.3 58.81 150.09C59.7667 149.88 60.49 149.565 60.98 149.145C61.47 148.702 61.715 148.165 61.715 147.535C61.715 146.882 61.47 146.345 60.98 145.925C60.49 145.505 59.7667 145.19 58.81 144.98C57.8767 144.77 56.7217 144.665 55.345 144.665ZM41.52 134.97H44.25C46.63 134.97 48.66 134.947 50.34 134.9C52.02 134.853 53.525 134.76 54.855 134.62C56.185 134.457 57.5033 134.235 58.81 133.955L59.265 137.665C57.935 137.945 56.5817 138.167 55.205 138.33C53.8283 138.47 52.265 138.575 50.515 138.645C48.7883 138.692 46.7 138.715 44.25 138.715H41.52V134.97ZM41.52 123.84H56.045V127.585H46.175V137.525H41.52V123.84ZM94.8923 121.705H99.5473V145.33H94.8923V121.705ZM77.9523 149.81H100.387V153.555H77.9523V149.81ZM77.9523 143.055H82.6073V151.735H77.9523V143.055ZM80.2273 123.49H84.0773V126.64C84.0773 128.74 83.7389 130.747 83.0623 132.66C82.4089 134.573 81.4056 136.253 80.0523 137.7C78.6989 139.147 76.9723 140.243 74.8723 140.99L72.4923 137.28C74.3123 136.65 75.7823 135.775 76.9023 134.655C78.0456 133.535 78.8856 132.275 79.4223 130.875C79.9589 129.475 80.2273 128.063 80.2273 126.64V123.49ZM81.1723 123.49H84.9523V126.64C84.9523 127.69 85.0923 128.728 85.3723 129.755C85.6756 130.758 86.1306 131.715 86.7373 132.625C87.3439 133.512 88.1256 134.317 89.0823 135.04C90.0389 135.763 91.1706 136.335 92.4773 136.755L90.1323 140.43C88.0789 139.753 86.3873 138.727 85.0573 137.35C83.7273 135.973 82.7473 134.363 82.1173 132.52C81.4873 130.677 81.1723 128.717 81.1723 126.64V123.49ZM105.74 124.33H121.21V140.01H105.74V124.33ZM116.625 128.04H110.325V136.335H116.625V128.04ZM125.655 121.705H130.31V145.33H125.655V121.705ZM129.015 131.05H134.615V134.865H129.015V131.05ZM109.415 149.81H131.465V153.555H109.415V149.81ZM109.415 143.02H114.105V151.7H109.415V143.02ZM147.457 123.84C149.137 123.84 150.653 124.178 152.007 124.855C153.36 125.532 154.422 126.477 155.192 127.69C155.962 128.88 156.347 130.257 156.347 131.82C156.347 133.36 155.962 134.737 155.192 135.95C154.422 137.163 153.36 138.108 152.007 138.785C150.653 139.462 149.137 139.8 147.457 139.8C145.753 139.8 144.225 139.462 142.872 138.785C141.518 138.108 140.445 137.163 139.652 135.95C138.882 134.737 138.497 133.36 138.497 131.82C138.497 130.257 138.882 128.88 139.652 127.69C140.445 126.477 141.518 125.532 142.872 124.855C144.225 124.178 145.753 123.84 147.457 123.84ZM147.457 127.83C146.617 127.83 145.858 127.993 145.182 128.32C144.528 128.623 144.003 129.078 143.607 129.685C143.233 130.268 143.047 130.98 143.047 131.82C143.047 132.66 143.233 133.383 143.607 133.99C144.003 134.597 144.528 135.063 145.182 135.39C145.858 135.693 146.617 135.845 147.457 135.845C148.273 135.845 149.008 135.693 149.662 135.39C150.315 135.063 150.828 134.597 151.202 133.99C151.598 133.383 151.797 132.66 151.797 131.82C151.797 130.98 151.598 130.268 151.202 129.685C150.828 129.078 150.315 128.623 149.662 128.32C149.008 127.993 148.273 127.83 147.457 127.83ZM159.392 121.635H164.047V154.15H159.392V121.635ZM137.692 147.605L137.167 143.825C139.057 143.825 141.145 143.813 143.432 143.79C145.742 143.743 148.11 143.65 150.537 143.51C152.987 143.347 155.355 143.102 157.642 142.775L157.957 146.135C155.623 146.602 153.255 146.94 150.852 147.15C148.448 147.337 146.127 147.465 143.887 147.535C141.647 147.582 139.582 147.605 137.692 147.605ZM200.2 121.67H204.855V137.945H200.2V121.67ZM190.015 122.895H195.125C195.125 125.835 194.577 128.355 193.48 130.455C192.383 132.555 190.715 134.27 188.475 135.6C186.258 136.93 183.435 137.945 180.005 138.645L178.395 134.9C180.565 134.503 182.385 134.002 183.855 133.395C185.348 132.788 186.538 132.077 187.425 131.26C188.335 130.443 188.988 129.557 189.385 128.6C189.805 127.643 190.015 126.628 190.015 125.555V122.895ZM180.11 122.895H193.27V126.57H180.11V122.895ZM183.26 139.275H204.855V148.095H187.95V151.595H183.295V144.735H200.165V142.845H183.26V139.275ZM183.295 150.195H205.66V153.8H183.295V150.195ZM217.382 127.06H221.162V128.25C221.162 130.07 220.824 131.797 220.147 133.43C219.494 135.04 218.49 136.44 217.137 137.63C215.784 138.82 214.069 139.695 211.992 140.255L209.857 136.615C211.63 136.148 213.065 135.483 214.162 134.62C215.282 133.757 216.099 132.777 216.612 131.68C217.125 130.56 217.382 129.417 217.382 128.25V127.06ZM218.257 127.06H222.037V128.25C222.037 129.323 222.294 130.385 222.807 131.435C223.344 132.462 224.16 133.383 225.257 134.2C226.354 135.017 227.765 135.647 229.492 136.09L227.427 139.695C225.35 139.158 223.635 138.33 222.282 137.21C220.929 136.067 219.914 134.725 219.237 133.185C218.584 131.645 218.257 130 218.257 128.25V127.06ZM211.012 124.785H228.442V128.425H211.012V124.785ZM217.382 121.565H222.037V126.5H217.382V121.565ZM230.962 121.705H235.617V140.15H230.962V121.705ZM234.357 128.95H239.922V132.765H234.357V128.95ZM222.702 143.09H226.657V143.86C226.657 145.097 226.4 146.275 225.887 147.395C225.374 148.515 224.604 149.53 223.577 150.44C222.55 151.327 221.29 152.073 219.797 152.68C218.304 153.287 216.577 153.73 214.617 154.01L212.937 150.475C214.617 150.265 216.075 149.938 217.312 149.495C218.549 149.052 219.564 148.527 220.357 147.92C221.15 147.313 221.734 146.66 222.107 145.96C222.504 145.237 222.702 144.537 222.702 143.86V143.09ZM223.752 143.09H227.672V143.86C227.672 144.537 227.87 145.225 228.267 145.925C228.664 146.602 229.259 147.255 230.052 147.885C230.869 148.492 231.884 149.028 233.097 149.495C234.31 149.962 235.745 150.3 237.402 150.51L235.757 154.045C233.797 153.788 232.07 153.345 230.577 152.715C229.084 152.085 227.824 151.315 226.797 150.405C225.794 149.495 225.035 148.48 224.522 147.36C224.009 146.24 223.752 145.073 223.752 143.86V143.09ZM214.337 141.515H236.037V145.19H214.337V141.515ZM264.664 121.67H269.319V154.08H264.664V121.67ZM255.109 125.03H259.694C259.694 127.503 259.449 129.872 258.959 132.135C258.493 134.375 257.699 136.487 256.579 138.47C255.483 140.453 253.966 142.297 252.029 144C250.116 145.68 247.724 147.22 244.854 148.62L242.404 144.945C245.531 143.428 248.016 141.76 249.859 139.94C251.726 138.097 253.068 136.02 253.884 133.71C254.701 131.377 255.109 128.763 255.109 125.87V125.03ZM244.154 125.03H257.279V128.74H244.154V125.03ZM56.78 171.82H65.32V175.565H56.78V171.82ZM47.96 164.155H51.705V168.88C51.705 170.91 51.53 172.882 51.18 174.795C50.83 176.708 50.2933 178.493 49.57 180.15C48.8467 181.807 47.925 183.265 46.805 184.525C45.7083 185.785 44.4017 186.8 42.885 187.57L39.98 183.86C41.3567 183.207 42.535 182.355 43.515 181.305C44.5183 180.255 45.3467 179.065 46 177.735C46.6767 176.382 47.1667 174.958 47.47 173.465C47.7967 171.948 47.96 170.42 47.96 168.88V164.155ZM48.905 164.155H52.615V168.88C52.615 170.397 52.7667 171.902 53.07 173.395C53.3733 174.865 53.8283 176.242 54.435 177.525C55.065 178.808 55.87 179.952 56.85 180.955C57.83 181.935 58.9967 182.728 60.35 183.335L57.55 187.045C56.0333 186.298 54.7267 185.318 53.63 184.105C52.5333 182.868 51.635 181.457 50.935 179.87C50.2583 178.283 49.745 176.557 49.395 174.69C49.0683 172.823 48.905 170.887 48.905 168.88V164.155ZM62.975 161.635H67.63V194.15H62.975V161.635ZM94.8573 161.635H99.5123V194.15H94.8573V161.635ZM74.2073 164.225H78.8273V172.135H85.5473V164.225H90.1673V186.59H74.2073V164.225ZM78.8273 175.74V182.88H85.5473V175.74H78.8273ZM116.87 163.56H120.895V165.905C120.895 167.305 120.696 168.67 120.3 170C119.926 171.307 119.366 172.543 118.62 173.71C117.873 174.877 116.951 175.938 115.855 176.895C114.781 177.828 113.545 178.633 112.145 179.31C110.745 179.987 109.205 180.488 107.525 180.815L105.53 176.93C106.976 176.673 108.295 176.288 109.485 175.775C110.698 175.238 111.76 174.597 112.67 173.85C113.58 173.103 114.35 172.298 114.98 171.435C115.61 170.548 116.076 169.638 116.38 168.705C116.706 167.748 116.87 166.815 116.87 165.905V163.56ZM117.78 163.56H121.84V165.905C121.84 166.838 121.991 167.783 122.295 168.74C122.621 169.697 123.088 170.618 123.695 171.505C124.325 172.368 125.095 173.162 126.005 173.885C126.915 174.608 127.965 175.238 129.155 175.775C130.345 176.288 131.686 176.673 133.18 176.93L131.185 180.815C129.505 180.488 127.965 179.987 126.565 179.31C125.165 178.633 123.916 177.828 122.82 176.895C121.746 175.962 120.825 174.912 120.055 173.745C119.308 172.578 118.736 171.33 118.34 170C117.966 168.67 117.78 167.305 117.78 165.905V163.56ZM104.83 186.345H134.195V190.16H104.83V186.345ZM143.06 166.117L142.496 183.395H138.395L137.813 166.117H143.06ZM137.677 188.744C137.677 188.015 137.927 187.411 138.429 186.933C138.941 186.443 139.614 186.198 140.445 186.198C141.288 186.198 141.961 186.443 142.462 186.933C142.963 187.411 143.214 188.015 143.214 188.744C143.214 189.451 142.963 190.049 142.462 190.539C141.961 191.028 141.288 191.273 140.445 191.273C139.614 191.273 138.941 191.028 138.429 190.539C137.927 190.049 137.677 189.451 137.677 188.744Z" fill="black"/>
</svg>
